<?xml version="1.0" encoding="UTF-8" standalone="no"?>
<!-- Created with Inkscape (http://www.inkscape.org/) -->

<svg
   width="210mm"
   height="297mm"
   viewBox="0 0 210 297"
   version="1.1"
   id="svg1"
   xml:space="preserve"
   inkscape:version="1.3 (0e150ed6c4, 2023-07-21)"
   sodipodi:docname="icon.svg"
   xmlns:inkscape="http://www.inkscape.org/namespaces/inkscape"
   xmlns:sodipodi="http://sodipodi.sourceforge.net/DTD/sodipodi-0.dtd"
   xmlns="http://www.w3.org/2000/svg"
   xmlns:svg="http://www.w3.org/2000/svg"><sodipodi:namedview
     id="namedview1"
     pagecolor="#ffffff"
     bordercolor="#000000"
     borderopacity="0.25"
     inkscape:showpageshadow="2"
     inkscape:pageopacity="0.0"
     inkscape:pagecheckerboard="0"
     inkscape:deskcolor="#d1d1d1"
     inkscape:document-units="mm"
     inkscape:zoom="2.0056913"
     inkscape:cx="187.46653"
     inkscape:cy="702.9995"
     inkscape:window-width="1920"
     inkscape:window-height="992"
     inkscape:window-x="-8"
     inkscape:window-y="-8"
     inkscape:window-maximized="1"
     inkscape:current-layer="layer1"
     inkscape:export-bgcolor="#ffffffff" /><defs
     id="defs1" /><g
     inkscape:label="Layer 1"
     inkscape:groupmode="layer"
     id="layer1"><path
       style="fill:#000000;stroke-width:0.946109"
       d="m 54.367433,217.15243 c -1.361374,-4.12762 -2.021983,-5.67185 -3.457295,-8.08174 -1.700419,-2.85499 -3.685541,-4.84669 -7.096791,-7.12028 -1.52835,-1.01864 -3.250852,-2.31324 -3.827786,-2.87687 -0.576933,-0.56364 -1.10143,-0.96618 -1.165557,-0.89453 -0.178693,0.19962 0.54872,3.87183 1.17194,5.91635 1.718474,5.63756 4.766474,9.90576 9.14911,12.81176 1.145649,0.75965 5.957175,3.17493 6.089071,3.05658 0.02739,-0.0246 -0.360833,-1.28964 -0.862692,-2.81127 z m 8.393573,1.78205 c 4.183015,-1.83164 6.811677,-3.95263 9.095913,-7.33922 1.540569,-2.28402 2.878249,-5.00977 3.586013,-7.30711 0.52678,-1.70986 1.254327,-5.64005 1.080109,-5.83469 -0.07152,-0.0799 -0.501546,0.21899 -0.955525,0.6643 -0.45398,0.4453 -2.236366,1.74107 -3.960855,2.87948 -5.926911,3.91261 -8.283366,7.25145 -10.633555,15.06658 -0.497939,1.6558 -0.885079,3.01055 -0.860329,3.01055 0.0247,0 1.216454,-0.51295 2.648229,-1.13989 z M 34.279692,208.29124 c 0.551879,-0.23933 0.542901,-0.37373 -0.414898,-6.21123 -0.456155,-2.78008 -0.96061,-6.4355 -1.121025,-8.12316 -0.248128,-2.61046 -0.357386,-3.08768 -0.73195,-3.19711 -0.374949,-0.10954 -0.417656,-0.29728 -0.287746,-1.26504 0.409303,-3.04925 2.380336,-8.29403 4.325975,-11.51109 2.09183,-3.4588 5.905589,-7.08255 9.656904,-9.17579 1.982491,-1.10622 5.54566,-2.32283 7.946737,-2.71333 3.134128,-0.50972 8.305538,-0.21999 11.236867,0.62954 5.742838,1.66433 11.207678,5.88296 14.378864,11.09988 1.358089,2.2342 3.371023,7.07658 4.083621,9.8237 0.719052,2.77205 0.734591,3.05801 0.166188,3.05801 -0.382808,0 -0.472365,0.38244 -0.728056,3.10886 -0.28371,3.02524 -1.325963,12.18939 -1.547014,13.60237 -0.102366,0.65433 -0.02667,0.7263 1.073941,1.02127 1.309636,0.35099 3.475824,0.16024 4.115622,-0.36241 0.241146,-0.19699 0.719365,-1.68102 1.206723,-3.74477 1.246226,-5.27724 1.571048,-12.79426 0.578312,-13.38309 -0.195387,-0.11589 -0.648337,-0.2796 -1.006547,-0.3638 -0.358219,-0.0842 -0.6513,-0.31425 -0.6513,-0.51122 0,-0.19697 -0.438727,-1.89134 -0.97495,-3.76527 -1.121866,-3.92056 -2.679281,-7.52125 -4.563594,-10.5509 -2.417216,-3.88646 -3.701225,-6.32714 -4.452976,-8.46436 -0.636154,-1.80859 -0.746505,-2.46778 -0.753353,-4.50022 -0.0045,-1.30969 0.08074,-2.88727 0.189256,-3.50573 0.175919,-1.00276 0.149029,-1.12438 -0.248378,-1.12349 -0.581042,0.001 -1.590759,0.70158 -4.089153,2.83603 -3.393499,2.89917 -4.435341,3.17876 -9.156191,2.45717 -2.066157,-0.31581 -5.216309,-0.27428 -11.769259,0.15518 -2.958971,0.19392 -3.758011,-0.0546 -5.861406,-1.82299 -1.943741,-1.63418 -4.231987,-3.31412 -4.777752,-3.50763 -0.788138,-0.27946 -0.917179,0.18446 -0.520129,1.86989 0.70609,2.9972 -0.331231,7.58747 -2.571481,11.37908 -0.599822,1.0152 -1.852465,3.09597 -2.783644,4.62394 -2.47888,4.0676 -4.061654,8.06029 -5.218036,13.16303 -0.210721,0.92985 -0.352804,1.12448 -0.820872,1.12448 -1.082526,0 -1.310379,0.59978 -1.310379,3.44938 0,3.68759 0.605864,8.10504 1.567315,11.42756 0.770593,2.66297 0.869755,2.85756 1.581305,3.10316 0.784235,0.27069 3.521529,0.18707 4.252459,-0.1299 z m 27.058338,-4.89717 c 5.137896,-0.82328 9.531471,-3.04684 12.91268,-6.53501 1.911391,-1.97186 2.916882,-3.64524 3.69793,-6.15428 1.867906,-6.00051 -0.746085,-13.50808 -5.684145,-16.32526 -3.393534,-1.93603 -9.927918,-0.45115 -13.402517,3.04557 l -1.234124,1.24198 -1.145524,-1.20857 c -1.255485,-1.32458 -3.190378,-2.55735 -5.209765,-3.31924 -0.967091,-0.36488 -2.005147,-0.49246 -4.030343,-0.49536 -2.597064,-0.004 -2.802038,0.0369 -4.27806,0.84827 -2.134831,1.17349 -4.216824,3.63203 -5.368381,6.33928 -0.802048,1.88558 -0.888015,2.30821 -0.969955,4.76851 -0.109509,3.28841 0.414899,5.53942 1.849699,7.93979 2.227576,3.72667 6.770224,7.18307 11.588893,8.81772 3.501021,1.18767 7.840656,1.58669 11.273612,1.0366 z m -4.925036,-4.91121 c -1.289131,-2.23545 -2.115211,-4.02771 -1.973011,-4.28058 0.05854,-0.10415 0.69407,-0.54295 1.412217,-0.9751 l 1.305715,-0.78573 1.438766,0.76823 c 0.990472,0.52887 1.438757,0.92002 1.438757,1.25536 0,0.47739 -1.213182,3.34841 -2.114736,5.00462 l -0.455787,0.83731 z m -8.752634,-4.71515 c -2.558645,-1.02007 -4.260989,-3.77617 -4.260989,-6.89855 0,-1.9368 0.505861,-3.3708 1.667855,-4.72799 2.367698,-2.76542 5.87298,-3.05594 8.532738,-0.7072 2.002595,1.76843 2.79664,4.50801 2.08133,7.18095 -1.086303,4.0593 -4.792173,6.44002 -8.020934,5.15279 z m 14.98027,-0.0428 c -1.197638,-0.57735 -2.809906,-2.41599 -3.459577,-3.94531 -0.991169,-2.33318 -0.654415,-5.14784 0.87381,-7.30345 1.734577,-2.44667 4.859853,-3.31108 7.355786,-2.03452 2.470466,1.26352 3.807609,3.50305 3.826846,6.40944 0.0265,3.99895 -2.852013,7.30895 -6.334228,7.2838 -0.788549,-0.006 -1.806733,-0.19018 -2.262637,-0.40996 z"
       id="path1"
       sodipodi:nodetypes="ssssssssssssssssssssssssssssssssssssssssscccssssssssssssssssssscsscssssssssscssscsssssssssssscs"
       inkscape:export-filename="icon.png"
       inkscape:export-xdpi="210.01106"
       inkscape:export-ydpi="210.01106" /></g></svg>
